<svg width="34" height="24" viewBox="0 0 34 24" fill="none" xmlns="http://www.w3.org/2000/svg">
<path d="M33.8001 1.35798C33.7965 1.36153 33.793 1.36153 33.793 1.36895L33.7855 1.37606C33.7746 1.38735 33.7707 1.3909 33.7746 1.3909L23.2244 12.4763L20.7394 15.0881C20.735 15.0848 20.7299 15.0824 20.7246 15.081L20.6807 15.0591L10.5195 10.5248L10.89 10.3525L12.603 9.54926L14.9911 8.43038C14.9954 8.42683 15.0003 8.42428 15.0057 8.42296H15.0095L32.8303 0.0777474C33.0004 -0.00213996 33.193 -0.0211503 33.3757 0.0239048C33.558 0.0689601 33.7197 0.175353 33.8333 0.325272C33.9469 0.475195 34.0056 0.659558 33.9995 0.847536C33.9934 1.03551 33.923 1.21571 33.8001 1.35798Z" fill="url(#paint0_linear_54_99)"/>
<g style="mix-blend-mode:multiply" opacity="0.2">
<g style="mix-blend-mode:multiply" opacity="0.2">
<path d="M0.136 6.90088H0.139871C0.135998 6.90443 0.136 6.90798 0.13245 6.91185C0.132175 6.90985 0.132352 6.90785 0.132967 6.90595C0.133582 6.90404 0.134619 6.9023 0.136 6.90088Z" fill="black"/>
</g>
</g>
<g style="mix-blend-mode:multiply" opacity="0.2">
<g style="mix-blend-mode:multiply" opacity="0.2">
<path d="M20.7408 15.0882C20.7408 15.0882 20.4068 14.9672 19.8272 14.7471C19.2463 14.516 18.4185 14.2082 17.432 13.8044C16.4451 13.4081 15.2968 12.935 14.0757 12.4142C12.8545 11.8933 11.5556 11.3211 10.2569 10.7489C9.61148 10.4552 8.96604 10.1654 8.33125 9.87563C7.69646 9.59325 7.07652 9.29474 6.47142 9.01752C5.26831 8.45599 4.14944 7.92027 3.19548 7.44749C2.71495 7.2161 2.28218 6.99568 1.89331 6.79817C1.70258 6.70136 1.51927 6.60712 1.35759 6.53032C1.21246 6.46196 1.05157 6.43411 0.891908 6.44963C0.660472 6.47068 0.443623 6.57182 0.278735 6.73557C0.264248 6.74931 0.250767 6.76409 0.238395 6.77978C0.2271 6.79075 0.216131 6.80527 0.206126 6.81625C0.195401 6.82612 0.185573 6.83693 0.176758 6.84852C0.305271 6.64094 0.505524 6.48781 0.739503 6.41814C0.973485 6.34846 1.2249 6.36715 1.44602 6.47061L10.5216 10.524L10.892 10.3516C12.0538 10.8761 13.214 11.4008 14.3 11.9107C15.5031 12.4719 16.6219 13.0112 17.5791 13.4807C18.5363 13.9503 19.3218 14.3572 19.8756 14.6361C20.29 14.8491 20.5688 14.9956 20.6824 15.0582L20.7263 15.0801C20.7316 15.0819 20.7365 15.0846 20.7408 15.0882Z" fill="black"/>
</g>
</g>
<path d="M20.741 15.0881L16.7393 19.2957C16.7365 19.299 16.7341 19.3027 16.7322 19.3067C16.7322 19.3067 16.7283 19.3031 16.7283 19.3067L13.5369 22.663C13.4907 22.7121 13.4418 22.7587 13.3904 22.8024C13.1896 22.9724 12.9558 23.0992 12.7037 23.1745C12.4516 23.2499 12.1866 23.2722 11.9255 23.2402C11.6643 23.2081 11.4126 23.1224 11.1862 22.9884C10.9598 22.8543 10.7635 22.6748 10.6098 22.4613L4.24514 13.6207V13.6171C4.23772 13.6132 4.23772 13.6097 4.23772 13.6097L4.16091 13.5032L0.199192 8.00435C0.0845194 7.85222 0.0162374 7.67021 0.00255429 7.48016C-0.0111289 7.29014 0.0303699 7.10022 0.122063 6.93324C0.12547 6.92892 0.127991 6.92398 0.129484 6.91872C0.129978 6.91872 0.130468 6.91862 0.130921 6.91843C0.131375 6.9182 0.131784 6.91791 0.132118 6.91756C0.132452 6.9172 0.132704 6.91675 0.132862 6.9163C0.13302 6.91582 0.133079 6.91533 0.133034 6.91485V6.9113C0.132759 6.9093 0.132936 6.9073 0.133551 6.90539C0.134166 6.90349 0.135203 6.90175 0.136585 6.90033H0.140455C0.147555 6.88548 0.162402 6.87096 0.176925 6.84901C0.305437 6.64144 0.505692 6.48828 0.739671 6.4186C0.973649 6.34896 1.22506 6.36764 1.44618 6.47111L10.5217 10.5245L20.6829 15.0587L20.7268 15.0806C20.7319 15.0822 20.7368 15.0847 20.741 15.0881Z" fill="url(#paint1_linear_54_99)"/>
<g style="mix-blend-mode:multiply" opacity="0.2">
<g style="mix-blend-mode:multiply" opacity="0.2">
<path d="M23.2244 12.4764L20.7394 15.0882C20.735 15.0849 20.73 15.0825 20.7246 15.0811L10.5195 10.5249L10.89 10.3526L12.603 9.54932L23.2244 12.4764Z" fill="black"/>
</g>
</g>
<g style="mix-blend-mode:screen" opacity="0.5">
<g style="mix-blend-mode:screen" opacity="0.5">
<path d="M0.135992 6.90088H0.139862C0.13599 6.90798 0.132441 6.91185 0.132441 6.9154C0.131916 6.9103 0.13317 6.90517 0.135992 6.90088Z" fill="white"/>
</g>
</g>
<g style="mix-blend-mode:screen" opacity="0.5">
<g style="mix-blend-mode:screen" opacity="0.5">
<path d="M20.7408 15.0882C20.7408 15.0882 20.4068 14.9672 19.8272 14.7471C19.2463 14.516 18.4185 14.2082 17.432 13.8044C16.4451 13.4081 15.2968 12.935 14.0757 12.4142C12.8545 11.8933 11.5556 11.3211 10.2569 10.7489C9.61148 10.4552 8.96604 10.1654 8.33125 9.87563C7.69646 9.59325 7.07652 9.29474 6.47142 9.01752C5.26831 8.45599 4.14944 7.92027 3.19548 7.44749C2.71495 7.2161 2.28218 6.99568 1.89331 6.79817C1.70258 6.70136 1.51927 6.60712 1.35759 6.53032C1.21246 6.46196 1.05157 6.43411 0.891908 6.44963C0.660472 6.47068 0.443623 6.57182 0.278735 6.73557C0.264248 6.74931 0.250767 6.76409 0.238395 6.77978C0.226612 6.79098 0.215817 6.80321 0.206126 6.81625C0.195401 6.82612 0.185573 6.83693 0.176758 6.84852C0.305271 6.64094 0.505524 6.48781 0.739503 6.41814C0.973485 6.34846 1.2249 6.36715 1.44602 6.47061L10.5216 10.524L20.6827 15.0582L20.7266 15.0801C20.7318 15.0819 20.7366 15.0847 20.7408 15.0882Z" fill="white"/>
</g>
</g>
<g style="mix-blend-mode:multiply" opacity="0.2">
<g style="mix-blend-mode:multiply" opacity="0.2">
<path d="M16.7278 19.3069L13.5364 22.6631C13.4902 22.7123 13.4413 22.7589 13.3899 22.8026C13.1891 22.9726 12.9553 23.0994 12.7032 23.1747C12.4511 23.25 12.1861 23.2724 11.925 23.2404C11.6638 23.2083 11.4121 23.1226 11.1857 22.9885C10.9592 22.8545 10.763 22.675 10.6093 22.4614L4.24463 13.6208C4.28884 13.6686 4.47215 13.8848 4.76098 14.234C5.0837 14.6374 5.56068 15.2061 6.10737 15.9031C6.65406 16.6002 7.28853 17.418 7.95236 18.3058C8.62007 19.1862 9.31327 20.1453 10.0103 21.0973L10.5238 21.8202L10.7768 22.1794L10.843 22.2675C10.8597 22.2932 10.8781 22.3178 10.8982 22.3411C10.9368 22.3935 10.9801 22.4426 11.0272 22.4876C11.1963 22.6586 11.401 22.7903 11.6267 22.8733C11.8524 22.9564 12.0937 22.9887 12.3333 22.9681C12.5676 22.9489 12.7952 22.8801 13.001 22.7664C13.0995 22.7122 13.1917 22.6472 13.276 22.5728L13.3495 22.5105L13.3786 22.4847L13.4109 22.4479L13.5464 22.3159C13.9059 21.9564 14.2509 21.6227 14.5736 21.3155C15.2084 20.6991 15.7586 20.204 16.1327 19.8445C16.468 19.5392 16.6803 19.3456 16.7278 19.3069Z" fill="black"/>
</g>
</g>
<g style="mix-blend-mode:screen" opacity="0.5">
<g style="mix-blend-mode:screen" opacity="0.5">
<path d="M33.8991 1.18179C33.9439 1.08037 33.9662 0.970206 33.9636 0.859222C33.961 0.748242 33.9339 0.639198 33.8845 0.53991C33.8187 0.392004 33.7051 0.270355 33.5621 0.194331C33.4195 0.118308 33.2552 0.0922724 33.0958 0.120368C32.8951 0.18677 32.7031 0.276687 32.5236 0.388231C32.3145 0.494406 32.0942 0.60832 31.8667 0.725468C30.9495 1.1989 29.8749 1.73817 28.7192 2.30681C28.1383 2.58564 27.5419 2.88769 26.9291 3.17233C26.3163 3.45698 25.7005 3.75581 25.0806 4.04917C23.8333 4.63006 22.586 5.20451 21.4084 5.72925C20.2308 6.25399 19.1306 6.7342 18.1812 7.13405C17.2311 7.54132 16.4313 7.85307 15.8737 8.08414C15.3931 8.27777 15.085 8.39234 15.0117 8.4217L32.8325 0.0764827C33.0025 -0.00261749 33.1946 -0.0210196 33.3769 0.0243439C33.5589 0.0697075 33.7199 0.176098 33.8332 0.325792C33.9465 0.475485 34.0049 0.659446 33.9988 0.84703C33.993 1.03461 33.9229 1.2145 33.8006 1.35672C33.8397 1.30225 33.8726 1.24358 33.8991 1.18179Z" fill="white"/>
</g>
</g>
<g style="mix-blend-mode:screen" opacity="0.3">
<g style="mix-blend-mode:screen" opacity="0.3">
<path d="M33.0556 1.08272L31.7168 2.48785C30.752 3.50032 29.7885 4.51272 28.8261 5.52497L15.5249 8.99163C18.643 7.53164 21.7627 6.07166 24.8838 4.61167C27.367 3.44988 29.852 2.28583 32.3385 1.11952C32.577 1.00947 32.8155 0.895548 33.054 0.7855C33.346 0.646085 33.1798 0.950407 33.0556 1.08272Z" fill="white"/>
</g>
</g>
<g style="mix-blend-mode:screen" opacity="0.3">
<g style="mix-blend-mode:screen" opacity="0.3">
<path d="M19.4974 15.3341C18.8883 15.969 18.2818 16.606 17.6779 17.2452C17.5091 17.4215 17.3407 17.6002 17.1719 17.7771L1.04199 7.13184C1.22755 7.16488 1.40536 7.23207 1.56641 7.32999C4.17852 8.4963 6.79159 9.66283 9.40562 10.8296C12.7698 12.333 16.1338 13.8345 19.4974 15.3341Z" fill="white"/>
</g>
</g>
<defs>
<linearGradient id="paint0_linear_54_99" x1="4.15636" y1="7.54407" x2="33.9998" y2="7.54407" gradientUnits="userSpaceOnUse">
<stop stop-color="#F8007A"/>
<stop offset="1" stop-color="#FC7300"/>
</linearGradient>
<linearGradient id="paint1_linear_54_99" x1="18.3558" y1="11.7948" x2="3.73069" y2="17.4936" gradientUnits="userSpaceOnUse">
<stop stop-color="#FCC400"/>
<stop offset="0.162" stop-color="#FBC000"/>
<stop offset="0.307" stop-color="#FBB500"/>
<stop offset="0.446" stop-color="#FBA300"/>
<stop offset="0.581" stop-color="#FA8900"/>
<stop offset="0.712" stop-color="#FA6800"/>
<stop offset="0.842" stop-color="#F93F00"/>
<stop offset="0.967" stop-color="#F81000"/>
<stop offset="1" stop-color="#F80300"/>
</linearGradient>
</defs>
</svg>
